/* XPM */
static char *batch_save_xpm[] = {
/* columns rows colors chars-per-pixel */
"24 24 67 1",
"  c Gray0",
". c #060606060505",
"X c #181829292d2d",
"o c #1e1e2a2a2d2d",
"O c Gray17",
"+ c #21212f2f3232",
"@ c #2e2e3b3b3d3d",
"# c #2c2c3d3d4242",
"$ c #292942424949",
"% c #2b2b46464d4d",
"& c #363657575f5f",
"* c #3b3b50505555",
"= c #38385c5c6464",
"- c #757560602020",
"; c #454549494a4a",
": c #4b4b5c5c6161",
"> c #454567676e6e",
", c #64647f7f8282",
"< c #5c5c87879191",
"1 c #7d7d8a8a8c8c",
"2 c #62629d9da8a8",
"3 c #6d6da4a4aeae",
"4 c #7a7aababb6b6",
"5 c #8e8e7d7d4545",
"6 c #c6c6b2b27373",
"7 c #d8d8bebe6a6a",
"8 c #82828c8c8d8d",
"9 c #858595959797",
"0 c #9a9a91918b8b",
"q c #8d8db6b6bebe",
"w c #a4a4adadafaf",
"e c #a7a7b4b4b6b6",
"r c #aaaab6b6b8b8",
"t c Gray72",
"y c #9e9ec2c2c7c7",
"u c #a8a8c7c7cbcb",
"i c #b1b1cacad0d0",
"p c #c2c2c8c8c9c9",
"a c #c5c5d8d8dcdc",
"s c #cdcdd1d1d3d3",
"d c #d6d6dcdcdddd",
"f c #d9d9dbdbdcdc",
"g c #dfdfdfdfdfdf",
"h c #d5d5dfdfe0e0",
"j c #d5d5e1e1e4e4",
"k c #dcdce0e0e0e0",
"l c #e1e1e3e3dcdc",
"z c #e2e2e2e2e2e2",
"x c Gray89",
"c c Gray90",
"v c #e6e6e6e6e6e6",
"b c #e5e5ececeded",
"n c #e9e9e9e9e9e9",
"m c #eaeaeaeaeaea",
"M c #e9e9eeeeefef",
"N c #ecececececec",
"B c Gray93",
"V c #e9e9eeeef0f0",
"C c #ebebf0f0f1f1",
"Z c #ededf2f2f2f2",
"A c #f0f0f2f2f3f3",
"S c Gray95",
"D c #f1f1f3f3f4f4",
"F c #f4f4f4f4f4f4",
"G c #f9f9f9f9f9f9",
"H c Gray100",
"J c None",
/* pixels */
"JJJJJJJJJJJJJJJJJJJJJJJJ",
"JJJJJJJJJJJJJJJJJJJJJJJJ",
"JJJJJJJJJJJJJJJJJJJ JJJJ",
"JJJJJJJJJJJJJJJJJJ 7 JJJ",
"JJJJJJJJJJJJJ  JJ 75 JJJ",
"JJJJJJJJJJJ  2#  75 JJJJ",
"JJJJJJJJJ  auM2 75 JJJJJ",
"JJJJJJJ  auaGA 75 JJJJJJ",
"JJJJJ  auaGGG 75 JJJJJJJ",
"JJJ  4iaGGGG 75 + JJJJJJ",
"JJ qijGG0GG 75 V2 JJJJJJ",
"JJ ,qZG0GG 75 GC2# JJJJJ",
"JJJ ubG0G6-  lb222 JJJJJ",
"JJJ >4ZG0. Db22&&2# JJJJ",
"JJJJ ybG0Db22$@=2&2 JJJJ",
"JJJJ >4Cb22$wBn;2&2# JJJ",
"JJJJJ q22&sSSmvr%2$X JJJ",
"JJJJJ <42pF*hnxg82+  JJJ",
"JJJJJJ q2&So3kct:  JJJJJ",
"JJJJJJ =22dNef1O JJJJJJJ",
"JJJJJJJ %2&z9  JJJJJJJJJ",
"JJJJJJJJ     JJJJJJJJJJJ",
"JJJJJJJJJJJJJJJJJJJJJJJJ",
"JJJJJJJJJJJJJJJJJJJJJJJJ"
};
