/* XPM */
static char * cameraconfig_xpm[] = {
"35 35 303 2",
"  	c None",
". 	c #D16F81",
"+ 	c #C74B62",
"@ 	c #A1A1A1",
"# 	c #A4A4A4",
"$ 	c #AEAEAE",
"% 	c #B3B3B3",
"& 	c #CE556C",
"* 	c #E84C69",
"= 	c #E42F50",
"- 	c #BA1936",
"; 	c #ADADAD",
"> 	c #D6D6D6",
", 	c #CCCCCC",
"' 	c #C4C4C4",
") 	c #D5D5D5",
"! 	c #C5C5C5",
"~ 	c #A3A3A3",
"{ 	c #ABABAB",
"] 	c #B9B9B9",
"^ 	c #848484",
"/ 	c #76404A",
"( 	c #E22A4C",
"_ 	c #DC0E34",
": 	c #DF0A31",
"< 	c #E11339",
"[ 	c #B91030",
"} 	c #D9D9D9",
"| 	c #C9C9C9",
"1 	c #BFBFBF",
"2 	c #C0C0C0",
"3 	c #CDCDCD",
"4 	c #D7D7D7",
"5 	c #BCBCBC",
"6 	c #999A9A",
"7 	c #959696",
"8 	c #9C9C9C",
"9 	c #6A6A6A",
"0 	c #79414B",
"a 	c #BB1735",
"b 	c #C60024",
"c 	c #DC042C",
"d 	c #E00A31",
"e 	c #BF0326",
"f 	c #BBBABA",
"g 	c #D4D4D4",
"h 	c #D2D2D2",
"i 	c #B8B8B8",
"j 	c #B4B4B4",
"k 	c #B6B6B6",
"l 	c #BABABA",
"m 	c #BEBEBE",
"n 	c #B5B5B6",
"o 	c #999795",
"p 	c #8B8A89",
"q 	c #858485",
"r 	c #616161",
"s 	c #803C49",
"t 	c #B31733",
"u 	c #D80129",
"v 	c #D90129",
"w 	c #DF5770",
"x 	c #D6C9CB",
"y 	c #C7C7C7",
"z 	c #BDBDBD",
"A 	c #B7B4B1",
"B 	c #B3A28C",
"C 	c #928473",
"D 	c #7D7A78",
"E 	c #7D7E7F",
"F 	c #696969",
"G 	c #78414B",
"H 	c #AD1531",
"I 	c #B50122",
"J 	c #CD0025",
"K 	c #DA1036",
"L 	c #D1909A",
"M 	c #BEB3B4",
"N 	c #B2B2B2",
"O 	c #B6B3B1",
"P 	c #C0B2A2",
"Q 	c #B09675",
"R 	c #927148",
"S 	c #746147",
"T 	c #696968",
"U 	c #7D7D7D",
"V 	c #737373",
"W 	c #5F343C",
"X 	c #7E0F23",
"Y 	c #B80325",
"Z 	c #D9072E",
"` 	c #E23151",
" .	c #D3566C",
"..	c #BC8891",
"+.	c #B0B0B0",
"@.	c #ACACAC",
"#.	c #BFB4A5",
"$.	c #B9A386",
"%.	c #987951",
"&.	c #6D502B",
"*.	c #554027",
"=.	c #857F78",
"-.	c #808080",
";.	c #9A9A9A",
">.	c #7A7A7A",
",.	c #565656",
"'.	c #6C5E60",
").	c #B65164",
"!.	c #CB062A",
"~.	c #DB0930",
"{.	c #D4062C",
"].	c #BF2340",
"^.	c #ABA8A7",
"/.	c #9D9D9D",
"(.	c #8A8A89",
"_.	c #818180",
":.	c #8A8A8A",
"<.	c #9F9F9E",
"[.	c #B8B1A7",
"}.	c #BAA58A",
"|.	c #9E805A",
"1.	c #6C502C",
"2.	c #483722",
"3.	c #686055",
"4.	c #C5C4C3",
"5.	c #989898",
"6.	c #969696",
"7.	c #767676",
"8.	c #5F5F5F",
"9.	c #AD9A9E",
"0.	c #B52D46",
"a.	c #A90220",
"b.	c #9C1630",
"c.	c #986871",
"d.	c #5E5E5E",
"e.	c #2F2F2F",
"f.	c #424241",
"g.	c #A49C92",
"h.	c #BCA88F",
"i.	c #9C7E58",
"j.	c #6D502D",
"k.	c #473824",
"l.	c #777169",
"m.	c #ADACAC",
"n.	c #999999",
"o.	c #585858",
"p.	c #303030",
"q.	c #535353",
"r.	c #B4B0B1",
"s.	c #B17680",
"t.	c #882134",
"u.	c #85696F",
"v.	c #767575",
"w.	c #898989",
"x.	c #797979",
"y.	c #BEAA93",
"z.	c #A78A66",
"A.	c #6F512D",
"B.	c #483620",
"C.	c #77716A",
"D.	c #ACACAB",
"E.	c #959595",
"F.	c #D0D0D0",
"G.	c #B1ADAC",
"H.	c #979796",
"I.	c #868686",
"J.	c #9E9E9E",
"K.	c #A4927B",
"L.	c #A0825D",
"M.	c #483926",
"N.	c #7C7670",
"O.	c #AFAFAF",
"P.	c #B1B1B1",
"Q.	c #AAAAAA",
"R.	c #8D8D8D",
"S.	c #6B6B6B",
"T.	c #656565",
"U.	c #C3C3C3",
"V.	c #B5B5B5",
"W.	c #8C8C8D",
"X.	c #848483",
"Y.	c #929191",
"Z.	c #8F8476",
"`.	c #A68A66",
" +	c #6F522E",
".+	c #4B3A24",
"++	c #87817A",
"@+	c #B0B0AF",
"#+	c #686868",
"$+	c #4B4B4B",
"%+	c #A0A0A0",
"&+	c #A7A7A7",
"*+	c #AAA9A9",
"=+	c #ADAAA5",
"-+	c #8E8A84",
";+	c #918D89",
">+	c #806C53",
",+	c #584936",
"'+	c #908C86",
")+	c #3E3E3E",
"!+	c #939292",
"~+	c #BBB6AD",
"{+	c #C0AE97",
"]+	c #9B8160",
"^+	c #746B5E",
"/+	c #858382",
"(+	c #93918E",
"_+	c #BFBFBE",
":+	c #929292",
"<+	c #444444",
"[+	c #B3B3B2",
"}+	c #BAB6AF",
"|+	c #BFAC93",
"1+	c #A18560",
"2+	c #694F2E",
"3+	c #574B3B",
"4+	c #868482",
"5+	c #A9A9A9",
"6+	c #717171",
"7+	c #B9B7B5",
"8+	c #BEB5A9",
"9+	c #BEAA92",
"0+	c #997A54",
"a+	c #654B29",
"b+	c #544939",
"c+	c #A8A6A2",
"d+	c #D1D1D0",
"e+	c #979797",
"f+	c #A7A6A6",
"g+	c #919191",
"h+	c #6D6D6D",
"i+	c #323232",
"j+	c #828282",
"k+	c #B7B4B3",
"l+	c #BEB2A5",
"m+	c #BAA387",
"n+	c #9C7D56",
"o+	c #5F4625",
"p+	c #4B3E2C",
"q+	c #969390",
"r+	c #929393",
"s+	c #8B8B8B",
"t+	c #7D7E7E",
"u+	c #5B5B5B",
"v+	c #595959",
"w+	c #A39D96",
"x+	c #C3B29B",
"y+	c #B09777",
"z+	c #8A6B45",
"A+	c #5C4324",
"B+	c #524739",
"C+	c #93918F",
"D+	c #FEFEFE",
"E+	c #CBCBCB",
"F+	c #F4F4F4",
"G+	c #BBA890",
"H+	c #AB8F6D",
"I+	c #886941",
"J+	c #543E22",
"K+	c #473B2B",
"L+	c #787672",
"M+	c #909090",
"N+	c #747474",
"O+	c #F1F1F1",
"P+	c #FFFFFF",
"Q+	c #F7F7F7",
"R+	c #A69076",
"S+	c #AA9173",
"T+	c #9D7E58",
"U+	c #7B5B33",
"V+	c #4F391F",
"W+	c #332A1E",
"X+	c #5B5956",
"Y+	c #555656",
"Z+	c #4C4C4C",
"`+	c #8E8E8E",
" @	c #DCDCDC",
".@	c #8C8C8C",
"+@	c #7C7C7C",
"@@	c #95754C",
"#@	c #88683F",
"$@	c #70522C",
"%@	c #4F3A21",
"&@	c #554B3F",
"*@	c #818181",
"=@	c #A5A5A5",
"-@	c #262626",
";@	c #7F7F7F",
">@	c #3F3F3F",
",@	c #D8D8D8",
"'@	c #6F6F6F",
")@	c #654F31",
"!@	c #48361E",
"~@	c #64594D",
"{@	c #DBDBDB",
"]@	c #666666",
"^@	c #352D24",
"/@	c #F3F3F3",
"(@	c #7E7E7E",
"_@	c #5C5C5C",
":@	c #474747",
"<@	c #545454",
"[@	c #484848",
"                                                                      ",
"                                                                      ",
"                                                                      ",
"                                                                      ",
"          . +                         @ # $ %                         ",
"        & * = -               ; > , ' ) ! ~ { ] ^                     ",
"      / ( _ : < [           ] } | 1 2 3 4 5 6 7 8 9                   ",
"        0 a b c d e   f g h 3 ! i j k l 1 m n o p q r                 ",
"          s t b u v w x y 2 z i j % % j j j A B C D E F               ",
"            G H I J K L M j % % % N N N N O P Q R S T U V             ",
"              W X Y Z `  ...N +.; { @.+.N #.$.%.&.*.=.-.;.>.,.        ",
"                '.).!.~.{.].^./.(._.:.<.[.}.|.1.2.3.4.z 5.6.7.8.      ",
"                  9.0.a.b.c.5.V d.e.f.g.h.i.j.k.l.m.z y n.o.p.q.      ",
"                  r.s.t.u.v.w.x.      y.z.A.B.C.D.j D.n.E.p.d.        ",
"                F.' i G.N H.I.J.    K.L.A.M.N.O.P.Q.R.S.  T.          ",
"                U.l V.% N ; W.X.Y.Z.`. +.+++@+N O.n.#+$+              ",
"                %+&+; N N P.*+=+-+;+>+,+'+f j N @.R.)+                ",
"                  !+{ N N N ~+{+]+^+/+(+_+i % N $ :+<+                ",
"                    V.V.[+}+|+1+2+3+4+:+5+% N N { :+6+                ",
"                    m 7+8+9+0+a+b+c+d+P.e+# &+f+g+h+i+                ",
"                  j+k+l+m+n+o+p+q+2 U.N n.r+g+s+t+V 7.u+v+            ",
"                  w+x+y+z+A+B+C+2 D+D+D+g | E+E+E+F+D+D+D+$           ",
"                  G+H+I+J+K+L+M+V.D+D+D+3 N+N+N+e+O+P+P+Q+g+          ",
"              R+S+T+U+V+W+X+Y+Z+E.;.`+6. @j j j g % .@.@+@o.          ",
"              @@#@$@%@&@        :.`+*@N =@-@;@T.>@,@-.-.'@q.          ",
"                )@!@~@          :.`+*@N Z+{@D+F+]@1 -.-.'@q.          ",
"                  ^@            :.`+*@N Z+D+D+D+;@1 -.-.'@q.          ",
"                                :.`+*@N Z+j+D+{@-@1 -.-.'@q.          ",
"                                :.`+*@~ /@Z+Z+Z+=@4 -.-.'@q.          ",
"                                :.`+*@;@~ N N N N :.-.-.'@q.          ",
"                                (@>.S.F F F F F F F F F _@:@          ",
"                                w.h+,.<@<@<@<@<@<@<@<@<@Z+[@          ",
"                                                                      ",
"                                                                      ",
"                                                                      "};
