/* XPM */
static char * colors_xpm[] = {
"24 24 29 1",
" 	c None",
".	c #000000",
"+	c #686868",
"@	c #757575",
"#	c #818181",
"$	c #8E8E8E",
"%	c #9A9A9A",
"&	c #A7A7A7",
"*	c #B3B3B3",
"=	c #C0C0C0",
"-	c #CCCCCC",
";	c #D9D9D9",
">	c #E6E6E6",
",	c #F2F2F2",
"'	c #FFFFFF",
")	c #FF0000",
"!	c #FF006D",
"~	c #FF00DA",
"{	c #B600FF",
"]	c #4800FF",
"^	c #0024FF",
"/	c #0091FF",
"(	c #00FFFF",
"_	c #00FF91",
":	c #00FF24",
"<	c #48FF00",
"[	c #B6FF00",
"}	c #FFDA00",
"|	c #FF6D00",
"                        ",
"                        ",
"                        ",
"   ..................   ",
"   .++@#$%&*=-;>,'''.   ",
"   .++@#$%&*=-;>,'''.   ",
"   .++@#$%&*=-;>,'''.   ",
"   .++@#$%&*=-;>,'''.   ",
"   .++@#$%&*=-;>,'''.   ",
"   .++@#$%&*=-;>,'''.   ",
"   .++@#$%&*=-;>,'''.   ",
"   .++@#$%&*=-;>,'''.   ",
"   .))!~{]^/(_:<[}|).   ",
"   .))!~{]^/(_:<[}|).   ",
"   .))!~{]^/(_:<[}|).   ",
"   .))!~{]^/(_:<[}|).   ",
"   .))!~{]^/(_:<[}|).   ",
"   .))!~{]^/(_:<[}|).   ",
"   .))!~{]^/(_:<[}|).   ",
"   .))!~{]^/(_:<[}|).   ",
"   ..................   ",
"                        ",
"                        ",
"                        "};
