/* XPM */
static char * contrast_xpm[] = {
"12 12 6 1",
" 	c None",
".	c #000000",
"+	c #303030",
"@	c #787C78",
"#	c #C8CCC8",
"$	c #F8FCF8",
"    ....    ",
"  ..+@....  ",
" .+@#$..... ",
" .@$$$..... ",
".+#$$$......",
".@$$$$......",
".@$$$$......",
".+#$$$......",
" .@$$$..... ",
" .+@#$..... ",
"  ..+@....  ",
"    ....    "};
