/* XPM */
static char *get_index_empty_xpm[] = {
"24 24 4 1",
" 	c None",
".	c #000000",
"+	c #E0E4E0",
"@	c #FFFFFF",
"                        ",
"                        ",
"                        ",
"                        ",
"   .................    ",
"   .++@.@@@.@@@.+++.    ",
"   .++@.@@@.@@@.+++.    ",
"   .++@.@@@.@@@.+++.    ",
"   .................    ",
"   .++@.@@@.@@@.@@+.    ",
"   .++@.@@@.@@@.@@+.    ",
"   .++@.@@@.@@@.@@+.    ",
"   .................    ",
"   .@@@.@@@.@@@.@@@.    ",
"   .@@@.@@@.@@@.@@@.    ",
"   .@@@.@@@.@@@.@@@.    ",
"   .................    ",
"   .@@@.@@@.@@@.@@@.    ",
"   .@@@.@@@.@@@.@@@.    ",
"   .@@@.@@@.@@@.@@@.    ",
"   .................    ",
"                        ",
"                        ",
"                        "};
