/* XPM */
static char * getpic_xpm[] = {
"35 35 441 2",
"  	c None",
". 	c #747474",
"+ 	c #818080",
"@ 	c #807E80",
"# 	c #CAC9CA",
"$ 	c #E7E7E9",
"% 	c #E5E4E4",
"& 	c #919091",
"* 	c #727277",
"= 	c #E2E1E4",
"- 	c #CFCED3",
"; 	c #CFCFCF",
"> 	c #D7D6D6",
", 	c #BDBCC2",
"' 	c #BFBEC6",
") 	c #D5D4D8",
"! 	c #EBEBEB",
"~ 	c #EBEAEA",
"{ 	c #D3D1D4",
"] 	c #62626B",
"^ 	c #F5F5F7",
"/ 	c #FEFEFE",
"( 	c #FFFFFF",
"_ 	c #F2F2F2",
": 	c #D8D7DA",
"< 	c #D5D5D8",
"[ 	c #D7D7DA",
"} 	c #F0F0F1",
"| 	c #CBC7C7",
"1 	c #5B5B5B",
"2 	c #CECECE",
"3 	c #CCCCCC",
"4 	c #C3C3C3",
"5 	c #848484",
"6 	c #6F6F6F",
"7 	c #7E7E7E",
"8 	c #C2C2C2",
"9 	c #C7C7C7",
"0 	c #8B8B8B",
"a 	c #969696",
"b 	c #888888",
"c 	c #E8E8E8",
"d 	c #828282",
"e 	c #4C4C4C",
"f 	c #707070",
"g 	c #919191",
"h 	c #7F7F7F",
"i 	c #797979",
"j 	c #575757",
"k 	c #8C8C8C",
"l 	c #989898",
"m 	c #353535",
"n 	c #4F4F4F",
"o 	c #999999",
"p 	c #B2B2B2",
"q 	c #CBCBCB",
"r 	c #8E8E8E",
"s 	c #A8A8A8",
"t 	c #959595",
"u 	c #262626",
"v 	c #BFBFBF",
"w 	c #BCBCBC",
"x 	c #C9C9C9",
"y 	c #C5C5C5",
"z 	c #858585",
"A 	c #8F8F8F",
"B 	c #7D7D7D",
"C 	c #787878",
"D 	c #757575",
"E 	c #535353",
"F 	c #515151",
"G 	c #737373",
"H 	c #5D5D5D",
"I 	c #565656",
"J 	c #3F3F3F",
"K 	c #605F60",
"L 	c #474747",
"M 	c #414141",
"N 	c #383838",
"O 	c #000000",
"P 	c #E59797",
"Q 	c #E58D8D",
"R 	c #E47878",
"S 	c #E36161",
"T 	c #E14141",
"U 	c #D82527",
"V 	c #D84848",
"W 	c #A85959",
"X 	c #280007",
"Y 	c #C50021",
"Z 	c #C1001E",
"` 	c #BD001C",
" .	c #BF001C",
"..	c #BE001C",
"+.	c #BA031F",
"@.	c #B70827",
"#.	c #B40E30",
"$.	c #AC1536",
"%.	c #A61D3C",
"&.	c #9C2342",
"*.	c #8B304B",
"=.	c #8C3651",
"-.	c #85455E",
";.	c #794F66",
">.	c #604A5E",
",.	c #7E3C3C",
"'.	c #FE8888",
").	c #FE8484",
"!.	c #FC5959",
"~.	c #ED1212",
"{.	c #C80103",
"].	c #A82531",
"^.	c #632F2F",
"/.	c #2C0007",
"(.	c #D3001F",
"_.	c #CE0219",
":.	c #D00C21",
"<.	c #D31024",
"[.	c #D2162A",
"}.	c #D12135",
"|.	c #CE243F",
"1.	c #C72243",
"2.	c #B62446",
"3.	c #AE294A",
"4.	c #9C2B4A",
"5.	c #84304D",
"6.	c #863E5A",
"7.	c #82556E",
"8.	c #765E75",
"9.	c #5F566A",
"0.	c #7F2A2A",
"a.	c #FC6363",
"b.	c #FE4D4D",
"c.	c #DF171B",
"d.	c #960407",
"e.	c #97404D",
"f.	c #240002",
"g.	c #BF0211",
"h.	c #CB0317",
"i.	c #E40830",
"j.	c #DB0A31",
"k.	c #DB173E",
"l.	c #E62F55",
"m.	c #D33053",
"n.	c #BD2C4E",
"o.	c #AC2D4D",
"p.	c #A13454",
"q.	c #A44B68",
"r.	c #A96984",
"s.	c #976A84",
"t.	c #7E637B",
"u.	c #7B758B",
"v.	c #727D8F",
"w.	c #7F1818",
"x.	c #FE2F2F",
"y.	c #F11314",
"z.	c #A30004",
"A.	c #531520",
"B.	c #32070F",
"C.	c #FA244D",
"D.	c #F5234B",
"E.	c #EA1840",
"F.	c #DD1D44",
"G.	c #D12045",
"H.	c #AE0C2F",
"I.	c #A71639",
"J.	c #B33051",
"K.	c #A23857",
"L.	c #973F5C",
"M.	c #8B4B66",
"N.	c #845A73",
"O.	c #8D7890",
"P.	c #858297",
"Q.	c #6C8094",
"R.	c #547182",
"S.	c #7E2B2B",
"T.	c #F71D1D",
"U.	c #E50105",
"V.	c #920005",
"W.	c #54272C",
"X.	c #2C0306",
"Y.	c #D10F1E",
"Z.	c #CC1121",
"`.	c #B80919",
" +	c #A70617",
".+	c #93091D",
"++	c #9C1131",
"@+	c #9B1B3C",
"#+	c #9E3151",
"$+	c #AD5775",
"%+	c #A46782",
"&+	c #91617B",
"*+	c #726077",
"=+	c #706C82",
"-+	c #7C8DA1",
";+	c #82A4B7",
">+	c #70A1B1",
",+	c #7F4B4B",
"'+	c #F52020",
")+	c #E90204",
"!+	c #B90004",
"~+	c #7E3F4C",
"{+	c #2E050D",
"]+	c #EB1E46",
"^+	c #E02047",
"/+	c #E8385D",
"(+	c #E24366",
"_+	c #CD4365",
":+	c #CB5474",
"<+	c #C76986",
"[+	c #AC5E78",
"}+	c #8B516C",
"|+	c #89637C",
"1+	c #877189",
"2+	c #6E758A",
"3+	c #66798D",
"4+	c #588193",
"5+	c #408091",
"6+	c #367584",
"7+	c #D61010",
"8+	c #F30303",
"9+	c #D40006",
"0+	c #7E1417",
"a+	c #270208",
"b+	c #CC1031",
"c+	c #C4173B",
"d+	c #BD2043",
"e+	c #B6284A",
"f+	c #992747",
"g+	c #7F213D",
"h+	c #8A3350",
"i+	c #8C516C",
"j+	c #7B556E",
"k+	c #6A576E",
"l+	c #6D6A81",
"m+	c #738B9E",
"n+	c #63889B",
"o+	c #4C8798",
"p+	c #50A2B2",
"q+	c #55AAB6",
"r+	c #CF0007",
"s+	c #E10105",
"t+	c #CD070D",
"u+	c #29050D",
"v+	c #CD2044",
"w+	c #BD2145",
"x+	c #B63051",
"y+	c #B44261",
"z+	c #B85876",
"A+	c #AF6480",
"B+	c #955D77",
"C+	c #805D76",
"D+	c #8B7990",
"E+	c #83889E",
"F+	c #6E8598",
"G+	c #5A8B9D",
"H+	c #4E8F9F",
"I+	c #51A2B1",
"J+	c #4DB7C3",
"K+	c #36A5AF",
"L+	c #BE222F",
"M+	c #BA0004",
"N+	c #CE0007",
"O+	c #EF1B1C",
"P+	c #984E4E",
"Q+	c #23060A",
"R+	c #AF2236",
"S+	c #AE2B49",
"T+	c #AB3958",
"U+	c #903351",
"V+	c #954F6A",
"W+	c #A5758E",
"X+	c #95758D",
"Y+	c #7C7087",
"Z+	c #7F869C",
"`+	c #7C99AC",
" @	c #6E95A8",
".@	c #5495A5",
"+@	c #59B0BF",
"@@	c #53BECA",
"#@	c #3CBCC7",
"$@	c #36B2BA",
"%@	c #972224",
"&@	c #A20509",
"*@	c #D50102",
"=@	c #F13333",
"-@	c #D16969",
";@	c #EA3E3E",
">@	c #1F050B",
",@	c #9F213C",
"'@	c #9B2A49",
")@	c #9A3F5D",
"!@	c #A8607B",
"~@	c #A87791",
"{@	c #91738B",
"]@	c #756C82",
"^@	c #5E667C",
"/@	c #4E6C7F",
"(@	c #4F7D8F",
"_@	c #5090A1",
":@	c #479EAD",
"<@	c #3DA6B3",
"[@	c #1FA4AF",
"}@	c #18ABB4",
"|@	c #16AAB1",
"1@	c #611E1F",
"2@	c #8A1112",
"3@	c #D70A0A",
"4@	c #F31E1F",
"5@	c #F81E1E",
"6@	c #E41214",
"7@	c #CA1D2D",
"8@	c #20090F",
"9@	c #A63B5A",
"0@	c #B05875",
"a@	c #9A5A76",
"b@	c #82506B",
"c@	c #71576F",
"d@	c #6E657C",
"e@	c #798297",
"f@	c #819DB0",
"g@	c #71AABB",
"h@	c #5DA2B2",
"i@	c #56B5C3",
"j@	c #62D1DD",
"k@	c #4BD0DB",
"l@	c #47DBE4",
"m@	c #44EEF4",
"n@	c #2CD6DB",
"o@	c #C72C2D",
"p@	c #B90203",
"q@	c #8E0004",
"r@	c #6D0001",
"s@	c #703F3F",
"t@	c #241117",
"u@	c #AF5773",
"v@	c #9D5B76",
"w@	c #82637B",
"x@	c #858296",
"y@	c #778196",
"z@	c #638497",
"A@	c #558698",
"B@	c #3F8393",
"C@	c #36909E",
"D@	c #21939F",
"E@	c #1C9BA6",
"F@	c #19ACB5",
"G@	c #19C0C8",
"H@	c #14D2D7",
"I@	c #0DC5C9",
"J@	c #67494D",
"K@	c #7C1D21",
"L@	c #601419",
"M@	c #6A3F4B",
"N@	c #24161B",
"O@	c #AA6A85",
"P@	c #976F88",
"Q@	c #937E94",
"R@	c #8D8C9E",
"S@	c #778A9E",
"T@	c #7695A8",
"U@	c #74ADBE",
"V@	c #76BBCB",
"W@	c #64C3D0",
"X@	c #59CBD7",
"Y@	c #4ED5DF",
"Z@	c #41E3EB",
"`@	c #3DEFF4",
" #	c #2FF0F3",
".#	c #20EFF1",
"+#	c #17DCDE",
"@#	c #572B30",
"##	c #743235",
"$#	c #1C1217",
"%#	c #8D637C",
"&#	c #7D6880",
"*#	c #656379",
"=#	c #5E6F83",
"-#	c #4E778A",
";#	c #457E8F",
">#	c #34808F",
",#	c #33919F",
"'#	c #33AAB6",
")#	c #1EAAB3",
"!#	c #19B5BD",
"~#	c #20CED5",
"{#	c #18DADF",
"]#	c #04D8DA",
"^#	c #00DADC",
"/#	c #00D2D3",
"(#	c #141014",
"_#	c #6D5B72",
":#	c #686A80",
"<#	c #748DA0",
"[#	c #7C9FB2",
"}#	c #72ADBE",
"|#	c #5DABBA",
"1#	c #42A5B2",
"2#	c #3AB4BF",
"3#	c #3EC3CE",
"4#	c #35D8E0",
"5#	c #33E4EB",
"6#	c #23EBF0",
"7#	c #16EEF1",
"8#	c #17F4F5",
"9#	c #1AF4F5",
"0#	c #14DADB",
"a#	c #1B191E",
"b#	c #828399",
"c#	c #748CA0",
"d#	c #5D899B",
"e#	c #468394",
"f#	c #4C9AA9",
"g#	c #4FB9C5",
"h#	c #53CDD8",
"i#	c #39CBD5",
"j#	c #32CDD6",
"k#	c #2EE5EC",
"l#	c #22EAEF",
"m#	c #0DE7EA",
"n#	c #01DEE0",
"o#	c #00E6E7",
"p#	c #00E9EA",
"q#	c #00CACB",
"r#	c #15191C",
"s#	c #6B7D8F",
"t#	c #648596",
"u#	c #518C9A",
"v#	c #47919E",
"w#	c #429CA7",
"x#	c #36A9B2",
"y#	c #30B7BF",
"z#	c #29BDC5",
"A#	c #23C5CB",
"B#	c #1BD0D4",
"C#	c #17D3D7",
"D#	c #06D7D9",
"E#	c #02DBDC",
"F#	c #00E1E1",
"G#	c #00E3E3",
"H#	c #00CCCC",
"                                                                      ",
"    . + @                                                             ",
"    # $ % &                                                           ",
"  * = - ; > , ' ' ' ) ! ~ ~ {                                         ",
"  ] ^ / ( _ : < < [ } ( / / |                                         ",
"  1 2 2 3 4 5 6 6 7 8 3 3 9 0                                         ",
"  1 a 5 b c d e e f ! g h i j                                         ",
"  1 a 5 k l m / ( n h o h i j                                         ",
"  1 a 5 k l p ( ( q h o h i j                                         ",
"  1 a 5 k l r / ( s h o h i j                                         ",
"  1 t 5 k 3 u h h u v o h i j                                         ",
"  1 t 5 d w 2 v v x y z h i j                                         ",
"  1 A B C C C C C C C C C D E                                         ",
"  F G H I I I I I I I I I I J                                         ",
"    K L M M M M M M M M M M N                                         ",
"                                O O O O O O O O O O O O O O O O O     ",
"        P Q R S T U V W         X Y Z `  ...+.@.#.$.%.&.*.=.-.;.>.O   ",
"      ,.'.).!.~.{.].^.          /.(._.:.<.[.}.|.1.2.3.4.5.6.7.8.9.O   ",
"      0.a.b.c.d.e.              f.g.h.i.j.k.l.m.n.o.p.q.r.s.t.u.v.O   ",
"      w.x.y.z.A.                B.C.D.E.F.G.H.I.J.K.L.M.N.O.P.Q.R.O   ",
"      S.T.U.V.W.                X.Y.Z.`. +.+++@+#+$+%+&+*+=+-+;+>+O   ",
"      ,+'+)+!+~+                {+]+^+/+(+_+:+<+[+}+|+1+2+3+4+5+6+O   ",
"        7+8+9+0+                a+b+c+d+e+f+g+h+i+j+k+l+m+n+o+p+q+O   ",
"          r+s+t+                u+v+w+x+y+z+A+B+C+D+E+F+G+H+I+J+K+O   ",
"          L+M+N+O+      P+      Q+R+S+T+U+V+W+X+Y+Z+`+ @.@+@@@#@$@O   ",
"            %@&@*@=@  -@;@      >@,@'@)@!@~@{@]@^@/@(@_@:@<@[@}@|@O   ",
"              1@2@3@4@5@6@7@    8@9@0@a@b@c@d@e@f@g@h@i@j@k@l@m@n@O   ",
"                    o@p@q@r@s@  t@u@v@7.w@x@y@z@A@B@C@D@E@F@G@H@I@O   ",
"                    J@K@L@M@    N@O@P@Q@R@S@T@U@V@W@X@Y@Z@`@ #.#+#O   ",
"                    @###        $#%#&#*#=#-#;#>#,#'#)#!#~#{#]#^#/#O   ",
"                                (#_#:#<#[#}#|#1#2#3#4#5#6#7#8#9#0#O   ",
"                                a#b#c#d#e#f#g#h#i#j#k#l#m#n#o#p#q#O   ",
"                                r#s#t#u#v#w#x#y#z#A#B#C#D#E#F#G#H#O   ",
"                                O O O O O O O O O O O O O O O O O     ",
"                                                                      "};
