/* XPM */
static char *help_xpm[] = {
/* columns rows colors chars-per-pixel */
"24 24 21 1",
"  c Gray0",
". c #21212e2e1f1f",
"X c Gray17",
"o c #65658b8b5e5e",
"O c #8c8cadad8686",
"+ c #8d8dadad8888",
"@ c #9696b4b49191",
"# c #a6a6bfbfa2a2",
"$ c #bebebebebebe",
"% c #acacc3c3a8a8",
"& c #b8b8ccccb5b5",
"* c #bcbccfcfb8b8",
"= c #c3c3d4d4c1c1",
"- c #cbcbdadac9c9",
"; c #d2d2dfdfd0d0",
": c #e1e1e9e9e0e0",
"> c #e6e6edede4e4",
", c #ebebf1f1eaea",
"< c #f0f0f4f4efef",
"1 c #f3f3f6f6f3f3",
"2 c None",
/* pixels */
"222222222222222222222222",
"222222222222222222222222",
"222222222222222222222222",
"222222222222222222222222",
"222222222     2222222222",
"22222222 #<,:- 222222222",
"2222222 -1<:::; 22222222",
"222222 =<%   *:%X2222222",
"2222222 >.222 :: 2222222",
"2222222- 2222 :% 2222222",
"222222222222 ::o 2222222",
"22222222222 ::O 22222222",
"2222222222 ::O 222222222",
"222222222 @:O 2222222222",
"222222222 :@ 22222222222",
"222222222    22222222222",
"222222222222222222222222",
"2222222222  222222222222",
"222222222 :& 22222222222",
"222222222 &+ 22222222222",
"2222222222  222222222222",
"222222222222222222222222",
"222222222222222222222222",
"222222222222222222222222"
};
