/* XPM */
static char * post_processing_off_xpm[] = {
"13 13 3 1",
" 	c None",
".	c #E80404",
"+	c #FFFFFF",
"    .....    ",
"  .........  ",
" ........... ",
" ......++... ",
"........++...",
".........+...",
".............",
".............",
".............",
" ........... ",
" ........... ",
"  .........  ",
"    .....    "};
