/* XPM */
static char * post_processing_off_xpm[] = {
"10 10 10 1",
" 	c None",
".	c #DA0303",
"+	c #E70303",
"@	c #A40202",
"#	c #E80404",
"$	c #F16E6E",
"%	c #F6A4A4",
"&	c #E90F0F",
"*	c #F8BCBC",
"=	c #E70404",
"   .++.   ",
" @##++++@ ",
" ###+$%+# ",
".###+&*%#.",
"#=+#++&$##",
"####++++##",
".+##++++#.",
" ==#++++# ",
" @##++++@ ",
"   .++.   "};
