/* XPM */
static char * rotcc_xpm[] = {
"24 24 65 1",
" 	c None",
".	c #353535",
"+	c #181818",
"@	c #313131",
"#	c #050505",
"$	c #525252",
"%	c #393939",
"&	c #111111",
"*	c #000000",
"=	c #040404",
"-	c #424242",
";	c #454545",
">	c #282828",
",	c #121212",
"'	c #262626",
")	c #1F1F1F",
"!	c #3C3C3C",
"~	c #222222",
"{	c #3F3F3F",
"]	c #0F0F0F",
"^	c #131313",
"/	c #0C0C0C",
"(	c #515151",
"_	c #494949",
":	c #020202",
"<	c #010101",
"[	c #212121",
"}	c #4C4C4C",
"|	c #242424",
"1	c #030303",
"2	c #363636",
"3	c #060606",
"4	c #414141",
"5	c #3D3D3D",
"6	c #1A1A1A",
"7	c #141414",
"8	c #0B0B0B",
"9	c #080808",
"0	c #070707",
"a	c #191919",
"b	c #1B1B1B",
"c	c #0E0E0E",
"d	c #5D5D5D",
"e	c #2D2D2D",
"f	c #2B2B2B",
"g	c #5A5A5A",
"h	c #161616",
"i	c #101010",
"j	c #575757",
"k	c #2C2C2C",
"l	c #333333",
"m	c #383838",
"n	c #323232",
"o	c #4B4B4B",
"p	c #0A0A0A",
"q	c #2F2F2F",
"r	c #505050",
"s	c #2A2A2A",
"t	c #232323",
"u	c #4F4F4F",
"v	c #373737",
"w	c #545454",
"x	c #1C1C1C",
"y	c #0D0D0D",
"z	c #3E3E3E",
"                        ",
"         .+             ",
"       @###$            ",
"     %&***=$       -;   ",
"    >#***=,        ')   ",
"   !#***~{         ].   ",
"   ^**/(          _:/   ",
"  .<<<$           [<*}  ",
"  /<<|            1<*&  ",
" 2=<34           '<*<35 ",
" 6:*7            &**:<5 ",
" 8<*|            90*<a+ ",
" ,<*b             c*<d  ",
" e#*0f            **:   ",
" g9**5           h*<i   ",
"  [<*#j         |3*<k   ",
"  >#**cl        6**9f   ",
"   m1<<cno    e:<<<+    ",
"    )*:**pqrn0***:q     ",
"     s#<<:*<****#tu     ",
"      ))1*<***<tv       ",
"        wmxy6zt         ",
"                        ",
"                        "};
