/* XPM */
static char * rotc_xpm[] = {
"24 24 65 1",
" 	c None",
".	c #181818",
"+	c #353535",
"@	c #525252",
"#	c #050505",
"$	c #313131",
"%	c #454545",
"&	c #424242",
"*	c #040404",
"=	c #000000",
"-	c #111111",
";	c #393939",
">	c #1F1F1F",
",	c #262626",
"'	c #121212",
")	c #282828",
"!	c #0F0F0F",
"~	c #3F3F3F",
"{	c #222222",
"]	c #3C3C3C",
"^	c #0C0C0C",
"/	c #020202",
"(	c #494949",
"_	c #515151",
":	c #131313",
"<	c #4C4C4C",
"[	c #010101",
"}	c #212121",
"|	c #030303",
"1	c #242424",
"2	c #3D3D3D",
"3	c #060606",
"4	c #414141",
"5	c #363636",
"6	c #141414",
"7	c #1A1A1A",
"8	c #191919",
"9	c #070707",
"0	c #080808",
"a	c #0B0B0B",
"b	c #5D5D5D",
"c	c #0E0E0E",
"d	c #1B1B1B",
"e	c #2B2B2B",
"f	c #2D2D2D",
"g	c #101010",
"h	c #161616",
"i	c #5A5A5A",
"j	c #2C2C2C",
"k	c #575757",
"l	c #333333",
"m	c #4B4B4B",
"n	c #323232",
"o	c #383838",
"p	c #2F2F2F",
"q	c #505050",
"r	c #0A0A0A",
"s	c #4F4F4F",
"t	c #232323",
"u	c #2A2A2A",
"v	c #373737",
"w	c #3E3E3E",
"x	c #0D0D0D",
"y	c #1C1C1C",
"z	c #545454",
"                        ",
"             .+         ",
"            @###$       ",
"   %&       @*===-;     ",
"   >,        '*===#)    ",
"   +!         ~{===#]   ",
"   ^/(          _^==:   ",
"  <=[}           @[[[+  ",
"  -=[|            1[[^  ",
" 23[=[,           43[*5 ",
" 2[/==-            6=/7 ",
" .8[=90            1=[a ",
"  b[=c             d=[' ",
"   /==            e9=#f ",
"   g[=h           2==0i ",
"   j[=31         k#=[}  ",
"   e0==7        lc==#)  ",
"    .[[[/f    mnc[[|o   ",
"     p/===9nqpr==/=>    ",
"     st#====[=/[[#u     ",
"       vt[===[=|>>      ",
"         tw7xyoz        ",
"                        ",
"                        "};
