/* XPM */
static char * stop_xpm[] = {
"24 24 8 1",
" 	c None",
".	c #FFFFFF",
"+	c #000000",
"@	c #FFAAAA",
"#	c #FF0000",
"$	c #FFE3E3",
"%	c #FF1D1D",
"&	c #FF5555",
"      +++++++++++       ",
"     ++.........++      ",
"     +.@#######@.+      ",
"    ++$#########$++     ",
"   ++.%#########%.++    ",
"  ++.&###########&.++   ",
"  +.@#############@.+   ",
" ++$###############$++  ",
"++.%###############%.++ ",
"+.&#################&.+ ",
"+.###################.+ ",
"+.###################.+ ",
"+.###################.+ ",
"+.###################.+ ",
"+.###################.+ ",
"+.&#################&.+ ",
"++.&###############&.++ ",
" ++.%#############%.++  ",
"  ++$%###########%$++   ",
"   ++$###########$++    ",
"    +.@#########@.+     ",
"    ++.@#######@.++     ",
"     ++.........++      ",
"      +++++++++++       "};
