/* XPM */
static char * brightness_xpm[] = {
"12 12 5 1",
" 	c None",
".	c #000000",
"+	c #484C48",
"@	c #B0B0B0",
"#	c #F8FCF8",
"     ..     ",
" ..  ..  .. ",
" ...    ... ",
"  . .... .  ",
"   .+@@+.   ",
".. .@##@. ..",
".. .@##@. ..",
"   .+@@+.   ",
"  . .... .  ",
" ...    ... ",
" ..  ..  .. ",
"     ..     "};
