/* XPM */
static char * fliph_xpm[] = {
"24 24 6 1",
" 	c None",
".	c #070707",
"+	c #000000",
"@	c #050505",
"#	c #010101",
"$	c #D6405D",
"                        ",
"                        ",
"                        ",
"                        ",
"                        ",
"           .+           ",
"           .@           ",
"           .+           ",
"       .   .+   +       ",
"      ..   .#   ++      ",
"     .$.   .+   +++     ",
"    .$$.....++++++++    ",
"   .$$$$$$$$+++++++++   ",
"    .$$.....++++++++    ",
"     .$.   .+   +++     ",
"      ..   .+   ++      ",
"       .   .#   +       ",
"           .+           ",
"           .+           ",
"           .+           ",
"                        ",
"                        ",
"                        ",
"                        "};
