/* XPM */
static char * flipv_xpm[] = {
"24 24 6 1",
" 	c None",
".	c #070707",
"+	c #D6405D",
"@	c #000000",
"#	c #010101",
"$	c #050505",
"                        ",
"                        ",
"                        ",
"            .           ",
"           .+.          ",
"          .+++.         ",
"         .+++++.        ",
"        ....+....       ",
"           .+.          ",
"           .+.          ",
"           .+.          ",
"     .......+.......    ",
"     @@@#@@@@@@#@@$@    ",
"           @@@          ",
"           @@@          ",
"           @@@          ",
"        @@@@@@@@@       ",
"         @@@@@@@        ",
"          @@@@@         ",
"           @@@          ",
"            @           ",
"                        ",
"                        ",
"                        "};
