/* XPM */
static char * gamma_xpm[] = {
"12 12 7 1",
" 	c None",
".	c #000000",
"+	c #787C78",
"@	c #C8CCC8",
"#	c #F8FCF8",
"$	c #B0B0B0",
"%	c #484C48",
"............",
".+@#######$.",
".@#####$+%..",
".####$+%....",
".###$+%.....",
".##$+.......",
".##+%.......",
".#$%........",
".#+.........",
".#%.........",
".$..........",
"............"};
