/* XPM */
static char * post_processing_on_xpm[] = {
"10 10 11 1",
" 	c None",
".	c #77DE00",
"+	c #7EEB00",
"@	c #5AA700",
"#	c #7EEC00",
"$	c #7FEC00",
"%	c #B5F46C",
"&	c #D0F8A2",
"*	c #85EC0C",
"=	c #DCF9BB",
"-	c #7FEB00",
"   .++.   ",
" @#$++++@ ",
" $$$+%&+$ ",
".$$$+*=&$.",
"$$-$++*%$$",
"-##$++++$$",
".$#$++++$.",
" $-$++++$ ",
" @#$++++@ ",
"   .++.   "};
