/* XPM */
static char * resize_xpm[] = {
"24 24 5 1",
" 	c None",
".	c #D6405D",
"+	c #000000",
"@	c #C83B57",
"#	c #AD334B",
"                        ",
"                        ",
"                        ",
"                        ",
"   .............        ",
"   .           .        ",
"   .           .        ",
"   .           .        ",
"   .           .        ",
"   . ++++++++++++++++   ",
"   . +         .    +   ",
"   . +         .    +   ",
"   . +         .    +   ",
"   ..+......@#..    +   ",
"     +       ++     +   ",
"     +       +++  + +   ",
"     +        +++++ +   ",
"     +         ++++ +   ",
"     +         ++++ +   ",
"     +        +++++ +   ",
"     +              +   ",
"     ++++++++++++++++   ",
"                        ",
"                        "};
