/* XPM */
static char * take_picture_xpm[] = {
"30 20 65 1",
" 	c None",
".	c #6D6B66",
"+	c #B7B6B0",
"@	c #C1C1BC",
"#	c #BEA39E",
"$	c #5B5445",
"%	c #53534E",
"&	c #AAA8A1",
"*	c #938E87",
"=	c #B06667",
"-	c #AC4E50",
";	c #AD5653",
">	c #B88785",
",	c #908767",
"'	c #594A3A",
")	c #464442",
"!	c #6A5C4F",
"~	c #493C2C",
"{	c #AFAFAC",
"]	c #AD7B7D",
"^	c #7D7D7B",
"/	c #807765",
"(	c #B0A379",
"_	c #4B4B4A",
":	c #666461",
"<	c #AD8859",
"[	c #41403E",
"}	c #6A533B",
"|	c #353431",
"1	c #959593",
"2	c #767673",
"3	c #5C5C5A",
"4	c #878683",
"5	c #BDA778",
"6	c #BEB085",
"7	c #71706F",
"8	c #A7996F",
"9	c #AD9561",
"0	c #7B6142",
"a	c #8A8A8C",
"b	c #BE9E6F",
"c	c #BB9964",
"d	c #9A9A95",
"e	c #585857",
"f	c #9F8A61",
"g	c #252522",
"h	c #D3D3D1",
"i	c #C8C8CA",
"j	c #BBBBBD",
"k	c #5F5853",
"l	c #876D53",
"m	c #A98052",
"n	c #20201E",
"o	c #B89061",
"p	c #3C3B39",
"q	c #2E2E2F",
"r	c #9F9F9E",
"s	c #181818",
"t	c #282828",
"u	c #B88A56",
"v	c #614B38",
"w	c #AAA39A",
"x	c #7B5B3E",
"y	c #2F2825",
"z	c #886242",
"                              ",
"            .     +@          ",
"        #   $%@   $&   @*     ",
"       =-;> .,'+ +)!  *~*     ",
"     @{{]-;#^/(_(:<$+[}|      ",
"    12^*^3:4,3567859'<0/      ",
"   +^^4a7_^a^7,^7,(5bc)+      ",
"   d^^a^e4{d4^/7+*3/fb<$/(    ",
"   ^^4a::3gg_7.1hij*klcm0'|!,@",
"  j^2a^e)n71e[){i@+{^~oom0~p/+",
"  &^2a.%g_pqqqg3{j+rg~mmp/+   ",
"  &.^a_7gpq||qseq%d_g}m|      ",
"  d)_.[^%tq||t|23pns|0uvw     ",
"  r_pp%^._|q||222:p|vxu'(     ",
"   a_q[_e_pq[227.:_)yvmz!     ",
"     1%p[[_e::..73%__k~v!     ",
"       {2[ppptp_%)))_  *'     ",
"          1:[t|p[ppp^         ",
"             d2%|tq%          ",
"                              "};
