/* XPM */
static char *web_browse_xpm[] = {
/* columns rows colors chars-per-pixel */
"24 24 28 1",
"  c Gray0",
". c #000100",
"X c #626f5a",
"o c #6a7861",
"O c #6b7962",
"+ c #6c7a63",
"@ c #6d7b64",
"# c #7a8a6f",
"$ c #7f8f74",
"% c #a03c3c",
"& c #839279",
"* c #a6b19e",
"= c #b7c0b1",
"- c #b8c1b2",
"; c #b9c2b3",
": c #c7cec3",
"> c #c8cfc4",
", c #c9d0c5",
"< c #ccd3c8",
"1 c #cfd7cf",
"2 c #d2d7ce",
"3 c #d3d8cf",
"4 c #d4d9d0",
"5 c #d8ddd4",
"6 c #e0e4dd",
"7 c #eff1ee",
"8 c Gray100",
"9 c None",
/* pixels */
"999999999999999999999999",
"999999999999999999999999",
"999999999999999999999999",
"999999999999999999999999",
"99999999999 99   9999999",
"9999999999 8 9 1 9999999",
"999999999 86&  , 9999999",
"99999999 884;$ : 9999999",
"9999999 882<>=$> 9999999",
"999999 782>>>,;# 9999999",
"99999 883>>,>>>;+ 999999",
"9999 888,>>,>:::*X 99999",
"999   88>>>>::::@   9999",
"99999 88,>::::::+ 999999",
"99999 88    ::::+ 999999",
"99999 88 :: :::>+ 999999",
"99999 88 >> >>>:o 999999",
"99999 85 << >>::o 999999",
"99999 ,@ ++ ++oo+ 999999",
"99999             999999",
"999999999999999999999999",
"999999999999999999999999",
"999999999999999999999999",
"999999999999999999999999"
};
